# xmcd
#
# Track frame offsets: 
#        150
#        15807
#        35985
#        54775
#        74900
#        102352
#        121452
#        146785
#        158240
#        177092
#
# Disc length: 2594 seconds
#
# Revision: 0
# Processed by: cddbd v1.5.2PL0 Copyright (c) Steve Scherf et al.
# Submitted via: ExactAudioCopy v0.99pb5
#
DISCID=8a0a200a
DTITLE=Voodoo Chili with Tony Rio - Voodoo Chili with Tony Rio
DYEAR=1996
DGENRE=Blues
TTITLE0=Tell the Truth
TTITLE1=Big Black Road
TTITLE2=Information Super-Highway Blues
TTITLE3=One Two Three
TTITLE4=Alvarado Hotel Blues
TTITLE5=Pain
TTITLE6=It Hurts to Play the Blues
TTITLE7=Fourteen Years
TTITLE8=Rock Me Sweet with A.C. Reed
TTITLE9=Rio's Thang
EXTD=
EXTT0=
EXTT1=
EXTT2=
EXTT3=
EXTT4=
EXTT5=
EXTT6=
EXTT7=
EXTT8=
EXTT9=
PLAYORDER=
